<?xml version="1.0" encoding="utf-8"?>
<!-- Generator: Adobe Illustrator 21.0.2, SVG Export Plug-In . SVG Version: 6.00 Build 0)  -->
<svg version="1.1" id="Laag_1" xmlns="http://www.w3.org/2000/svg" xmlns:xlink="http://www.w3.org/1999/xlink" x="0px" y="0px"
	 viewBox="0 0 121.6 118.1" style="enable-background:new 0 0 121.6 118.1;" xml:space="preserve">
<style type="text/css">
	.st0{fill:none;stroke:#FFFFFF;stroke-width:2;stroke-miterlimit:10;}
	.st1{fill:#FFFFFF;}
</style>
<title>SOCAIL_ICONS</title>
<path class="st0" d="M60.8,107.9c-26.2,0-47.4-21.2-47.4-47.4s21.2-47.4,47.4-47.4s47.4,21.2,47.4,47.4l0,0
	C108.2,86.7,87,107.9,60.8,107.9z"/>
<path class="st1" d="M50.5,40.7c-5.9,3-10.2,8.4-11.7,14.8c6.7,0.1,13.3-0.8,19.8-2.5C56.2,48.6,53.5,44.5,50.5,40.7z"/>
<path class="st1" d="M46.8,78.6c6.2,4.9,14.6,6.1,22,3.3c-1-5.8-2.6-11.5-4.7-17C57,67,51.3,71.6,46.8,78.6z"/>
<path class="st1" d="M74.4,42.9c-5.5-4.3-12.6-5.7-19.3-4c2.9,3.9,5.6,8.1,8,12.4C67.5,49.5,71.4,46.7,74.4,42.9z"/>
<path class="st1" d="M62.3,60.5c-0.5-1.1-1-2.2-1.5-3.3c-7.4,2.1-15,3.1-22.7,3c0,0.2,0,0.4,0,0.6c0,5.3,1.8,10.4,5.2,14.4
	C48.3,67.8,54.6,62.9,62.3,60.5z"/>
<path class="st1" d="M68.8,63.8c1.9,5.1,3.4,10.4,4.4,15.7c5.3-3.5,8.8-9,9.8-15.3C78.3,63.4,73.5,63.3,68.8,63.8z"/>
<path class="st1" d="M65.3,55.5c0.6,1.3,1.2,2.5,1.8,3.8c5.4-0.8,10.8-0.8,16.2,0.2c-0.3-4.9-2.1-9.6-5.3-13.3
	C74.5,50.3,70.2,53.5,65.3,55.5z"/>
<path class="st1" d="M60.8,19.9c-22.5,0-40.7,18.2-40.7,40.7s18.2,40.7,40.7,40.7c22.5,0,40.7-18.2,40.7-40.7
	C101.5,38.1,83.3,19.9,60.8,19.9C60.8,19.9,60.8,19.9,60.8,19.9z M60.7,88.1c-15.1,0-27.4-12.2-27.4-27.3s12.2-27.4,27.3-27.4
	S88,45.7,88,60.8c0,0,0,0,0,0C88,75.9,75.8,88.1,60.7,88.1z"/>
</svg>
