<?xml version="1.0" encoding="utf-8"?>
<!-- Generator: Adobe Illustrator 21.0.2, SVG Export Plug-In . SVG Version: 6.00 Build 0)  -->
<svg version="1.1" id="Laag_1" xmlns="http://www.w3.org/2000/svg" xmlns:xlink="http://www.w3.org/1999/xlink" x="0px" y="0px"
	 viewBox="0 0 121.6 118.1" style="enable-background:new 0 0 121.6 118.1;" xml:space="preserve">
<style type="text/css">
	.st0{fill:none;stroke:#FFFFFF;stroke-width:2;stroke-miterlimit:10;}
	.st1{fill:#FFFFFF;}
</style>
<title>SOCAIL_ICONS</title>
<path class="st0" d="M60.8,106.2c-26.2,0-47.4-21.2-47.4-47.4s21.2-47.4,47.4-47.4s47.4,21.2,47.4,47.4l0,0
	C108.2,85,87,106.2,60.8,106.2z"/>
<path class="st1" d="M60.8,18.1c-22.5,0-40.7,18.2-40.7,40.7s18.2,40.7,40.7,40.7s40.7-18.2,40.7-40.7S83.3,18.2,60.8,18.1
	L60.8,18.1z M72.8,42.8h-5.7c-2,0-2.4,0.8-2.4,2.9v5h8.1L72,59.5h-7.3v26.1H54.3v-26h-5.4v-8.9h5.4v-7c0-6.5,3.5-10,11.3-10h7.2
	V42.8z"/>
</svg>
