<?xml version="1.0" encoding="utf-8"?>
<!-- Generator: Adobe Illustrator 21.0.2, SVG Export Plug-In . SVG Version: 6.00 Build 0)  -->
<svg version="1.1" id="Laag_1" xmlns="http://www.w3.org/2000/svg" xmlns:xlink="http://www.w3.org/1999/xlink" x="0px" y="0px"
	 viewBox="0 0 121.6 118.1" style="enable-background:new 0 0 121.6 118.1;" xml:space="preserve">
<style type="text/css">
	.st0{fill:none;stroke:#FFFFFF;stroke-width:2;stroke-miterlimit:10;}
	.st1{fill:#FFFFFF;}
</style>
<title>SOCAIL_ICONS</title>
<path class="st0" d="M59.8,106.7c-26.2,0-47.4-21.2-47.4-47.4s21.2-47.4,47.4-47.4s47.4,21.2,47.4,47.4l0,0
	C107.2,85.5,86,106.7,59.8,106.7z"/>
<path class="st1" d="M59.8,18.6c-22.5,0-40.7,18.2-40.7,40.7S37.4,100,59.8,100s40.7-18.2,40.7-40.7S82.3,18.7,59.8,18.6L59.8,18.6z
	 M83.2,69.9c0,2-0.4,3.9-1.1,5.7c-1.2,3.2-3.7,5.7-6.9,6.9c-1.8,0.7-3.8,1.1-5.7,1.1c-2.5,0.1-3.3,0.1-9.7,0.1s-7.2,0-9.7-0.1
	c-2,0-3.9-0.4-5.7-1.1c-3.2-1.2-5.7-3.7-6.9-6.9c-0.7-1.8-1.1-3.8-1.1-5.7c-0.1-2.5-0.1-3.3-0.1-9.7s0-7.2,0.1-9.7
	c0-2,0.4-3.9,1.1-5.7c1.2-3.2,3.7-5.7,6.9-6.9c1.8-0.7,3.8-1.1,5.7-1.1c2.5-0.1,3.3-0.1,9.7-0.1s7.2,0,9.7,0.1c2,0,3.9,0.4,5.7,1.1
	c3.2,1.2,5.7,3.7,6.9,6.9c0.7,1.8,1.1,3.8,1.1,5.7c0.1,2.5,0.1,3.3,0.1,9.7S83.3,67.4,83.2,69.9z"/>
<path class="st1" d="M78.2,46.3c-0.8-2-2.4-3.7-4.5-4.5c-1.4-0.5-2.9-0.8-4.4-0.9c-2.5-0.1-3.2-0.1-9.5-0.1s-7,0-9.5,0.1
	c-1.5,0-3,0.3-4.4,0.8c-2,0.8-3.7,2.4-4.5,4.5c-0.5,1.4-0.8,2.9-0.8,4.4c-0.1,2.5-0.1,3.2-0.1,9.5s0,7,0.1,9.5c0,1.5,0.3,3,0.8,4.4
	c0.8,2.1,2.4,3.7,4.5,4.5c1.4,0.5,2.9,0.8,4.4,0.8c2.5,0.1,3.2,0.1,9.5,0.1s7,0,9.5-0.1c1.5,0,3-0.3,4.4-0.8c2-0.8,3.7-2.4,4.5-4.5
	c0.5-1.4,0.8-2.9,0.8-4.4c0.1-2.5,0.1-3.2,0.1-9.5s0-7-0.1-9.5C79,49.2,78.7,47.7,78.2,46.3z M59.9,72.3c-6.7,0-12.1-5.4-12.1-12.1
	s5.4-12.1,12.1-12.1s12.1,5.4,12.1,12.1c0,0,0,0,0,0C71.9,66.9,66.5,72.3,59.9,72.3z M72.4,50.5c-1.6,0-2.8-1.3-2.8-2.8
	s1.3-2.8,2.8-2.8s2.8,1.3,2.8,2.8l0,0C75.2,49.2,74,50.5,72.4,50.5z"/>
<circle class="st1" cx="59.9" cy="60.2" r="7.8"/>
</svg>
