<?xml version="1.0" encoding="utf-8"?>
<!-- Generator: Adobe Illustrator 21.0.2, SVG Export Plug-In . SVG Version: 6.00 Build 0)  -->
<svg version="1.1" id="Laag_1" xmlns="http://www.w3.org/2000/svg" xmlns:xlink="http://www.w3.org/1999/xlink" x="0px" y="0px"
	 viewBox="0 0 121.6 118.1" style="enable-background:new 0 0 121.6 118.1;" xml:space="preserve">
<style type="text/css">
	.st0{fill:none;stroke:#FFFFFF;stroke-width:2;stroke-miterlimit:10;}
	.st1{fill:#FFFFFF;}
</style>
<title>SOCAIL_ICONS</title>
<path class="st0" d="M60.8,106.5c-26.2,0-47.4-21.2-47.4-47.4s21.2-47.4,47.4-47.4s47.4,21.2,47.4,47.4l0,0
	C108.2,85.2,87,106.4,60.8,106.5z"/>
<path class="st1" d="M60.8,18.4c-22.5,0-40.7,18.2-40.7,40.7s18.2,40.7,40.7,40.7s40.7-18.2,40.7-40.7c0,0,0,0,0,0
	C101.5,36.6,83.3,18.4,60.8,18.4z M86.7,71.6L86.7,71.6c-0.4,0.5-0.9,0.8-1.5,1l0,0c-1.2,0.5-2.4,0.8-3.7,1h-0.1
	c-0.3,0-0.7,0.1-0.9,0.3c-0.4,0.7-0.7,1.5-0.9,2.3c0,0,0,0.1-0.1,0.1c0.1-0.1,0-0.1,0,0.1c0,0.1-0.1,0.2-0.2,0.3
	c-0.1,0.2-0.3,0.3-0.5,0.3c0,0-0.1,0-0.2,0c-1.5-0.2-3.1-0.3-4.6-0.2l0,0c-0.7,0-1.5,0.1-2.2,0.3l0,0c-1.8,0.8-3.5,2.1-5.4,3.2l0,0
	c-0.8,0.5-1.8,0.9-2.8,1l0,0c-1.2,0.1-2.4,0.1-3.6,0.1l0,0c-1.5-0.1-3-0.7-4.2-1.5l0,0c-1.8-1.1-3.4-2.3-5.3-2.8
	c-1.9-0.3-3.8-0.2-5.6,0.2H45c-0.3,0.1-0.6,0.1-0.8,0.1c-0.2-0.1-0.4-0.2-0.5-0.4c-0.2-0.8-0.3-1.5-0.5-2.2C43,74.2,42.9,74,42.9,74
	c-0.7-0.3-1.5-0.4-2.2-0.6l0,0c-1.3-0.2-2.5-0.6-3.7-1.2l0,0c-0.2-0.1-0.4-0.3-0.6-0.4c-0.2-0.3-0.3-0.7-0.2-1.1l0.1-0.2
	c0.3-0.4,0.8-0.7,1.4-0.8h0.1c1.4-0.4,2.7-1,3.8-1.8c2.2-1.5,4-3.6,5.2-6l0,0c0.5-0.8,0.7-1.7,0.6-2.6c-0.3-0.7-0.8-1.2-1.5-1.5
	c-1.2-0.4-2.4-0.9-3.4-1.5l0,0c-0.1-0.1-0.3-0.2-0.6-0.4c-0.3-0.2-0.5-0.6-0.6-0.9l0,0c0,0,0-0.1,0-0.1c0-0.6,0.4-1.1,0.9-1.3l0,0
	l0,0c0.5-0.4,1.1-0.5,1.6-0.4l0,0c0.6,0.2,1.1,0.3,1.7,0.5l0,0c0.7,0.2,1.5,0.2,2.2,0.1c0,0,0-0.1,0-0.1c0.1-1.5,0-3-0.1-4.5
	c-0.3-2.3,0-4.6,0.7-6.8l0,0c0.9-2.2,2.4-4.1,4.2-5.5C55,35,58.1,34,61.3,34c0.8,0,1.5,0,2.3,0.1c2.3,0.2,4.5,1,6.4,2.3
	c2.7,1.8,4.5,4.6,5.2,7.7l0,0c0.2,1.8,0.3,3.7,0.1,5.6l0,0c0,1.2-0.1,2.3-0.1,3.5l0,0c0,0.2,0,0.3,0,0.4c0.6,0.2,1.2,0.2,1.8,0l0,0
	c0.6-0.1,1.1-0.3,1.6-0.5l0,0c0.6-0.2,1.3-0.2,1.8,0.2l0,0c0.4,0.2,0.8,0.6,1.1,1l0,0c0.1,0.3,0.1,0.5,0.1,0.8c0,0.1,0,0.1-0.1,0.2
	c-0.1,0.2-0.3,0.4-0.4,0.6l0,0c-0.9,0.7-2,1.3-3.1,1.6l0,0c-0.9,0.3-1.7,0.9-2.2,1.6l0,0c-0.3,0.5-0.3,1.1-0.1,1.7l0,0
	c0.5,1.4,1.3,2.8,2.3,4c1.7,2.2,4,3.9,6.6,4.8l0,0c0.6,0.1,1.1,0.3,1.6,0.6l0,0l0,0l0,0c0.5,0.2,0.7,0.8,0.5,1.3
	C86.7,71.5,86.7,71.5,86.7,71.6z"/>
</svg>
