<?xml version="1.0" encoding="utf-8"?>
<!-- Generator: Adobe Illustrator 21.0.2, SVG Export Plug-In . SVG Version: 6.00 Build 0)  -->
<svg version="1.1" id="Laag_1" xmlns="http://www.w3.org/2000/svg" xmlns:xlink="http://www.w3.org/1999/xlink" x="0px" y="0px"
	 viewBox="0 0 121.6 118.1" style="enable-background:new 0 0 121.6 118.1;" xml:space="preserve">
<style type="text/css">
	.st0{fill:none;stroke:#FFFFFF;stroke-width:2;stroke-miterlimit:10;}
	.st1{fill:#FFFFFF;}
</style>
<title>SOCAIL_ICONS</title>
<path class="st0" d="M59.8,105.9c-26.2,0-47.4-21.2-47.4-47.4s21.2-47.4,47.4-47.4s47.4,21.2,47.4,47.4l0,0
	C107.2,84.6,86,105.8,59.8,105.9z"/>
<path class="st1" d="M59.8,17.8c-22.5,0-40.7,18.2-40.7,40.7s18.2,40.7,40.7,40.7s40.7-18.2,40.7-40.7c0,0,0,0,0,0
	C100.5,36,82.3,17.8,59.8,17.8z M81,51.1C81.6,64.3,71.8,79,54.4,79c-5.1,0-10.1-1.4-14.4-4.2c5,0.6,9.9-0.8,13.9-3.9
	c-4-0.1-7.5-2.7-8.8-6.5c1.4,0.3,2.9,0.2,4.2-0.2c-4.4-0.9-7.5-4.8-7.5-9.3c1.3,0.7,2.8,1.1,4.2,1.2c-4.1-2.8-5.4-8.2-2.9-12.5
	c4.8,5.9,11.8,9.4,19.3,9.8c-1.2-5,1.9-10.1,7-11.3c3.3-0.8,6.7,0.3,9,2.7c2.1-0.4,4.1-1.2,6-2.3c-0.7,2.2-2.2,4-4.1,5.2
	c1.9-0.2,3.7-0.7,5.4-1.5C84.5,48.2,82.9,49.8,81,51.1z"/>
</svg>
