<?xml version="1.0" standalone="no"?>
<!DOCTYPE svg PUBLIC "-//W3C//DTD SVG 20010904//EN"
 "http://www.w3.org/TR/2001/REC-SVG-20010904/DTD/svg10.dtd">
<svg version="1.0" xmlns="http://www.w3.org/2000/svg"
 width="1232.000000pt" height="1232.000000pt" viewBox="0 0 1232.000000 1232.000000"
 preserveAspectRatio="xMidYMid meet">
<metadata>
Created by potrace 1.11, written by Peter Selinger 2001-2013
</metadata>
<g transform="translate(0.000000,1232.000000) scale(0.100000,-0.100000)"
fill="#000000" stroke="none">
<path d="M5969 12315 c-2 -2 -29 -6 -59 -9 -100 -11 -144 -17 -195 -27 -27 -6
-63 -13 -80 -15 -158 -25 -669 -192 -722 -236 -7 -6 -13 -8 -13 -5 0 7 -298
-140 -332 -165 -15 -10 -28 -16 -28 -12 0 4 -8 0 -17 -8 -10 -8 -52 -35 -93
-59 -41 -24 -77 -46 -80 -49 -3 -3 -39 -27 -80 -54 -88 -58 -303 -218 -334
-248 -7 -7 -27 -24 -45 -38 -98 -76 -338 -316 -479 -481 -108 -125 -285 -381
-379 -547 -53 -95 -163 -321 -163 -337 0 -8 -4 -15 -10 -15 -5 0 -10 -8 -10
-17 0 -10 -7 -31 -15 -47 -15 -29 -110 -304 -119 -347 -3 -13 -17 -73 -31
-134 -14 -60 -28 -123 -30 -140 -3 -16 -7 -41 -9 -55 -2 -14 -7 -47 -11 -75
-3 -27 -8 -62 -10 -76 -13 -73 -24 -349 -15 -349 3 0 14 26 25 58 16 49 42
117 75 197 5 11 23 51 39 88 17 38 31 72 31 76 0 5 6 14 14 20 8 7 17 23 21
38 3 14 33 73 66 131 32 57 59 108 59 113 0 5 5 9 10 9 6 0 10 4 10 9 0 9 129
205 162 246 136 169 228 269 334 364 65 59 230 181 243 181 6 0 11 4 11 8 0
14 229 127 315 155 160 53 266 70 425 70 249 1 495 -55 727 -163 95 -45 257
-143 290 -176 8 -8 17 -14 21 -14 12 0 183 -160 232 -216 49 -56 127 -159 140
-184 7 -14 16 -27 20 -30 8 -6 85 -143 117 -210 37 -77 70 -165 98 -260 10
-35 17 -60 20 -76 2 -10 4 -19 5 -19 4 0 25 -112 36 -185 19 -132 18 -379 -1
-500 -4 -25 -9 -58 -11 -75 -4 -35 -8 -53 -17 -80 -3 -11 -8 -32 -11 -47 -12
-69 -104 -338 -136 -396 -5 -9 -17 -35 -27 -57 -25 -56 -111 -212 -174 -315
-29 -47 -99 -150 -126 -185 -4 -6 -23 -33 -42 -60 -19 -28 -48 -66 -63 -85
-16 -19 -32 -40 -36 -45 -20 -29 -87 -111 -97 -120 -6 -5 -17 -19 -25 -31 -22
-32 -175 -208 -235 -270 -16 -17 -47 -51 -69 -75 -67 -76 -375 -401 -591 -624
-53 -55 -204 -215 -335 -355 -25 -26 -72 -78 -105 -116 -33 -37 -69 -77 -80
-88 -22 -24 -128 -146 -192 -222 -35 -41 -174 -215 -243 -304 -19 -24 -86
-115 -115 -155 -69 -96 -185 -274 -185 -284 0 -5 -4 -11 -8 -13 -26 -11 -233
-395 -322 -598 -46 -103 -137 -348 -144 -383 -2 -12 -9 -33 -15 -47 -11 -25
-48 -162 -57 -210 -3 -14 -8 -34 -11 -45 -3 -11 -7 -29 -9 -40 -2 -11 -5 -31
-9 -45 -9 -42 -17 -84 -20 -107 -2 -13 -6 -42 -10 -65 -4 -24 -8 -54 -10 -68
-2 -14 -6 -44 -10 -67 -4 -23 -8 -73 -10 -112 -1 -38 -5 -73 -8 -78 -7 -12 -1
-471 7 -523 9 -58 15 -95 22 -145 3 -22 12 -67 20 -100 8 -33 17 -71 20 -85 2
-14 7 -32 11 -40 3 -8 8 -24 10 -35 3 -19 37 -119 53 -160 38 -95 94 -220 120
-265 14 -25 32 -58 40 -75 19 -38 161 -251 194 -290 14 -16 38 -46 53 -65 32
-40 245 -255 283 -285 14 -11 48 -38 75 -60 28 -23 84 -63 125 -90 41 -28 77
-52 80 -55 3 -3 22 -14 43 -25 20 -11 37 -23 37 -27 0 -5 3 -7 8 -6 4 1 27 -9
52 -22 25 -13 48 -23 52 -22 3 1 12 -5 18 -13 7 -8 16 -15 21 -15 5 0 32 -11
61 -24 55 -25 185 -76 203 -80 6 -1 15 -4 20 -7 6 -4 24 -10 40 -14 31 -8 35
-10 70 -20 60 -17 222 -50 300 -61 28 -3 59 -8 70 -10 11 -2 75 -7 143 -10
l122 -6 1 84 c2 161 17 397 33 521 3 26 8 66 11 90 9 71 14 101 20 127 3 14 7
39 10 55 6 47 16 106 20 124 3 9 11 48 20 86 9 39 18 78 21 88 2 9 7 27 10 40
3 12 6 27 8 32 1 6 8 30 15 55 26 97 96 305 104 311 5 3 8 9 7 13 -1 7 33 105
50 141 5 11 21 47 35 80 48 108 129 270 137 273 4 2 8 12 8 23 0 11 6 22 14
25 8 3 18 19 21 35 4 16 11 29 16 29 5 0 9 4 9 9 0 9 140 237 162 266 5 6 41
56 81 111 80 110 172 230 196 255 9 8 25 28 36 43 11 15 29 38 40 50 145 162
222 243 405 426 219 218 338 330 352 330 4 0 8 7 8 15 0 8 4 15 8 15 4 0 26
17 48 38 23 20 69 62 104 92 35 30 75 66 91 80 15 14 55 50 90 80 34 30 77 69
95 85 18 17 54 48 79 70 26 22 62 54 79 70 18 17 63 57 100 89 37 33 80 71 95
85 16 14 53 48 82 75 283 256 747 720 782 781 4 8 25 32 47 54 22 22 40 43 40
45 0 3 11 18 25 33 37 43 98 117 120 148 11 16 25 33 30 39 6 6 31 40 57 76
26 36 51 70 55 75 4 6 26 37 48 70 22 33 42 62 45 65 10 9 116 181 172 280 75
131 156 294 213 425 26 61 51 119 56 130 31 70 139 386 158 460 5 22 19 74 30
115 11 41 22 86 25 100 3 14 7 34 10 45 12 49 47 223 51 250 2 17 5 31 6 33 1
1 2 10 3 20 2 19 17 119 21 142 3 15 14 110 20 165 2 17 6 64 10 105 3 41 8
91 11 110 8 48 15 721 7 733 -3 5 -7 35 -8 66 -1 31 -5 72 -9 91 -3 19 -8 53
-10 75 -8 68 -23 160 -26 160 -1 0 -4 16 -7 35 -2 19 -11 62 -19 95 -8 33 -17
71 -20 85 -21 102 -112 377 -174 525 -31 74 -147 306 -191 380 -56 98 -176
282 -196 303 -7 7 -13 17 -13 21 0 4 -8 16 -18 27 -9 10 -40 48 -67 84 -28 36
-52 67 -55 70 -3 3 -30 34 -60 69 -96 112 -274 285 -404 393 -12 10 -32 28
-46 39 -74 64 -227 171 -390 274 -119 76 -347 191 -485 245 -44 17 -93 38
-110 45 -30 13 -276 94 -305 100 -13 3 -125 29 -172 41 -35 8 -56 12 -94 19
-46 8 -69 13 -69 15 0 1 -11 3 -25 4 -51 6 -136 17 -165 22 -83 14 -615 31
-626 19z"/>
</g>
</svg>
