<svg xmlns="http://www.w3.org/2000/svg" xmlns:xlink="http://www.w3.org/1999/xlink" viewBox="0 0 357.74 616.32"><defs><style>.a{fill:url(#a);}.b{fill:#d74d00;}.c{fill:url(#b);}.d{fill:url(#c);}.e{fill:url(#d);}.f{fill:url(#e);}.g{fill:url(#f);}.h{fill:url(#g);}.i{fill:url(#h);}.j{fill:url(#i);}.k{fill:url(#j);}.l{fill:url(#k);}.m{fill:url(#l);}.n{fill:url(#m);}.o{fill:url(#n);}.p{fill:url(#o);}.q{fill:url(#p);}.r{fill:url(#q);}.s{fill:url(#r);}.t{fill:url(#s);}.u{fill:url(#t);}.v{fill:url(#u);}.w{fill:url(#v);}.x{fill:url(#w);}.y{fill:url(#x);}.z{fill:url(#y);}.aa{fill:url(#z);}.ab{fill:url(#aa);}.ac{fill:url(#ab);}.ad{fill:url(#ac);}.ae{fill:url(#ad);}.af{fill:url(#ae);}.ag{fill:url(#af);}.ah{fill:url(#ag);}.ai{fill:url(#ah);}.aj{fill:url(#ai);}.ak{fill:url(#aj);}.al{fill:url(#ak);}.am{fill:url(#al);}.an{fill:url(#am);}.ao{fill:url(#an);}.ap{fill:url(#ao);}.aq{fill:url(#ap);}.ar{fill:url(#aq);}.as{fill:url(#ar);}.at{fill:url(#as);}.au{fill:url(#at);}.av{fill:url(#au);}.aw{fill:url(#av);}.ax{fill:url(#aw);}.ay{fill:url(#ax);}.az{fill:url(#ay);}.ba{fill:url(#az);}.bb{fill:url(#ba);}.bc{fill:url(#bb);}.bd{fill:url(#bc);}.be{fill:url(#bd);}.bf{fill:url(#be);}.bg{fill:url(#bf);}.bh{fill:url(#bg);}.bi{fill:url(#bh);}.bj{fill:url(#bi);}.bk{fill:url(#bj);}.bl{fill:url(#bk);}.bm{fill:url(#bl);}.bn{fill:url(#bm);}.bo{fill:url(#bn);}.bp{fill:url(#bo);}.bq{fill:url(#bp);}.br{fill:url(#bq);}.bs{fill:url(#br);}.bt{fill:url(#bs);}.bu{fill:url(#bt);}.bv{fill:url(#bu);}.bw{fill:url(#bv);}.bx{fill:url(#bw);}.by{fill:url(#bx);}.bz{fill:url(#by);}.ca{fill:url(#bz);}.cb{fill:url(#ca);}.cc{fill:url(#cb);}.cd{fill:url(#cc);}.ce{fill:url(#cd);}.cf{fill:url(#ce);}.cg{fill:url(#cf);}.ch{fill:url(#cg);}.ci{fill:url(#ch);}.cj{fill:url(#ci);}.ck{fill:url(#cj);}.cl{fill:url(#ck);}.cm{fill:url(#cl);}.cn{fill:url(#cm);}.co{fill:url(#cn);}.cp{fill:url(#co);}.cq{fill:url(#cp);}.cr{fill:url(#cq);}.cs{fill:url(#cr);}.ct{fill:url(#cs);}</style><linearGradient id="a" x1="146.19" y1="21.09" x2="250.1" y2="610.41" gradientUnits="userSpaceOnUse"><stop offset="0" stop-color="#e25609"/><stop offset="0.36" stop-color="#e25409"/><stop offset="0.56" stop-color="#e04c0a"/><stop offset="0.71" stop-color="#de3e0b"/><stop offset="0.85" stop-color="#db2b0c"/><stop offset="0.96" stop-color="#d7120e"/><stop offset="1" stop-color="#d6090f"/></linearGradient><linearGradient id="b" x1="133.13" y1="31.89" x2="133.85" y2="29.9" gradientUnits="userSpaceOnUse"><stop offset="0" stop-color="#e25609"/><stop offset="0.42" stop-color="#e25409"/><stop offset="0.6" stop-color="#e14d0a"/><stop offset="0.74" stop-color="#df400b"/><stop offset="0.85" stop-color="#dc2e0c"/><stop offset="0.95" stop-color="#d8170e"/><stop offset="1" stop-color="#d6090f"/></linearGradient><linearGradient id="c" x1="125.37" y1="36.01" x2="126.18" y2="33.77" xlink:href="#b"/><linearGradient id="d" x1="129.25" y1="33.9" x2="130.01" y2="31.79" xlink:href="#b"/><linearGradient id="e" x1="109.74" y1="45.83" x2="110.94" y2="42.53" xlink:href="#b"/><linearGradient id="f" x1="369.87" y1="130.65" x2="372.05" y2="124.64" xlink:href="#b"/><linearGradient id="g" x1="121.49" y1="38.25" x2="122.36" y2="35.84" xlink:href="#b"/><linearGradient id="h" x1="113.7" y1="43.12" x2="114.75" y2="40.22" xlink:href="#b"/><linearGradient id="i" x1="117.6" y1="40.61" x2="118.56" y2="37.99" xlink:href="#b"/><linearGradient id="j" x1="361.75" y1="299.34" x2="362.65" y2="296.86" xlink:href="#b"/><linearGradient id="k" x1="360.03" y1="303.2" x2="360.94" y2="300.69" xlink:href="#b"/><linearGradient id="l" x1="358.24" y1="307.01" x2="359.17" y2="304.45" xlink:href="#b"/><linearGradient id="m" x1="356.4" y1="310.77" x2="357.35" y2="308.15" xlink:href="#b"/><linearGradient id="n" x1="354.5" y1="314.47" x2="355.47" y2="311.8" xlink:href="#b"/><linearGradient id="o" x1="363.41" y1="295.43" x2="364.31" y2="292.97" xlink:href="#b"/><linearGradient id="p" x1="368.02" y1="283.32" x2="368.9" y2="280.9" xlink:href="#b"/><linearGradient id="q" x1="366.55" y1="287.43" x2="367.43" y2="284.98" xlink:href="#b"/><linearGradient id="r" x1="365.01" y1="291.45" x2="365.9" y2="289.01" xlink:href="#b"/><linearGradient id="s" x1="54.11" y1="100.38" x2="55.4" y2="96.82" xlink:href="#b"/><linearGradient id="t" x1="68.32" y1="82" x2="69.63" y2="78.39" xlink:href="#b"/><linearGradient id="u" x1="65.31" y1="85.51" x2="66.6" y2="81.95" xlink:href="#b"/><linearGradient id="v" x1="62.38" y1="89.11" x2="63.67" y2="85.57" xlink:href="#b"/><linearGradient id="w" x1="71.42" y1="78.56" x2="72.75" y2="74.88" xlink:href="#b"/><linearGradient id="x" x1="86.65" y1="75.15" x2="98.77" y2="41.86" xlink:href="#b"/><linearGradient id="y" x1="74.59" y1="75.21" x2="75.97" y2="71.43" xlink:href="#b"/><linearGradient id="z" x1="103.94" y1="472.39" x2="249.72" y2="71.85" xlink:href="#b"/><linearGradient id="aa" x1="59.53" y1="92.79" x2="60.82" y2="89.25" xlink:href="#b"/><linearGradient id="ab" x1="44.37" y1="116.56" x2="45.76" y2="112.76" xlink:href="#b"/><linearGradient id="ac" x1="42.18" y1="120.83" x2="43.61" y2="116.92" xlink:href="#b"/><linearGradient id="ad" x1="38.1" y1="129.68" x2="39.65" y2="125.43" xlink:href="#b"/><linearGradient id="ae" x1="40.1" y1="125.19" x2="41.57" y2="121.14" xlink:href="#b"/><linearGradient id="af" x1="49.05" y1="108.31" x2="50.38" y2="104.65" xlink:href="#b"/><linearGradient id="ag" x1="46.66" y1="112.39" x2="48.02" y2="108.67" xlink:href="#b"/><linearGradient id="ah" x1="352.53" y1="318.15" x2="353.53" y2="315.39" xlink:href="#b"/><linearGradient id="ai" x1="56.77" y1="96.54" x2="58.06" y2="93" xlink:href="#b"/><linearGradient id="aj" x1="51.53" y1="104.3" x2="52.84" y2="100.7" xlink:href="#b"/><linearGradient id="ak" x1="375.16" y1="143.29" x2="376.28" y2="140.23" xlink:href="#b"/><linearGradient id="al" x1="373.92" y1="139.2" x2="375.05" y2="136.11" xlink:href="#b"/><linearGradient id="am" x1="372.6" y1="135.14" x2="373.71" y2="132.07" xlink:href="#b"/><linearGradient id="an" x1="376.32" y1="147.43" x2="377.42" y2="144.4" xlink:href="#b"/><linearGradient id="ao" x1="377.38" y1="151.62" x2="378.46" y2="148.63" xlink:href="#b"/><linearGradient id="ap" x1="373.25" y1="266.26" x2="374.14" y2="263.83" xlink:href="#b"/><linearGradient id="aq" x1="369.43" y1="279.16" x2="370.31" y2="276.74" xlink:href="#b"/><linearGradient id="ar" x1="370.77" y1="274.93" x2="371.65" y2="272.51" xlink:href="#b"/><linearGradient id="as" x1="372.05" y1="270.63" x2="372.93" y2="268.2" xlink:href="#b"/><linearGradient id="at" x1="382.05" y1="182.11" x2="382.78" y2="180.09" xlink:href="#b"/><linearGradient id="au" x1="381.22" y1="173.18" x2="382.11" y2="170.74" xlink:href="#b"/><linearGradient id="av" x1="381.68" y1="177.63" x2="382.51" y2="175.37" xlink:href="#b"/><linearGradient id="aw" x1="378.34" y1="155.84" x2="379.4" y2="152.93" xlink:href="#b"/><linearGradient id="ax" x1="382.33" y1="186.65" x2="382.91" y2="185.05" xlink:href="#b"/><linearGradient id="ay" x1="380.65" y1="168.78" x2="381.59" y2="166.2" xlink:href="#b"/><linearGradient id="az" x1="379.21" y1="160.11" x2="380.24" y2="157.3" xlink:href="#b"/><linearGradient id="ba" x1="379.98" y1="164.43" x2="380.97" y2="161.72" xlink:href="#b"/><linearGradient id="bb" x1="378.97" y1="238.46" x2="379.89" y2="235.93" xlink:href="#b"/><linearGradient id="bc" x1="381.84" y1="207.68" x2="382.93" y2="204.68" xlink:href="#b"/><linearGradient id="bd" x1="381.97" y1="202.23" x2="383.19" y2="198.86" xlink:href="#b"/><linearGradient id="be" x1="381.58" y1="213.04" x2="382.61" y2="210.22" xlink:href="#b"/><linearGradient id="bf" x1="381.75" y1="196.58" x2="383.63" y2="191.42" xlink:href="#b"/><linearGradient id="bg" x1="374.39" y1="261.81" x2="375.27" y2="259.38" xlink:href="#b"/><linearGradient id="bh" x1="348.4" y1="325.42" x2="349.5" y2="322.4" xlink:href="#b"/><linearGradient id="bi" x1="381.23" y1="218.3" x2="382.22" y2="215.57" xlink:href="#b"/><linearGradient id="bj" x1="346.22" y1="329.05" x2="347.4" y2="325.82" xlink:href="#b"/><linearGradient id="bk" x1="343.94" y1="332.74" x2="345.23" y2="329.18" xlink:href="#b"/><linearGradient id="bl" x1="380.79" y1="223.47" x2="381.76" y2="220.82" xlink:href="#b"/><linearGradient id="bm" x1="376.45" y1="252.71" x2="377.34" y2="250.24" xlink:href="#b"/><linearGradient id="bn" x1="378.21" y1="243.29" x2="379.12" y2="240.78" xlink:href="#b"/><linearGradient id="bo" x1="375.45" y1="257.3" x2="376.35" y2="254.85" xlink:href="#b"/><linearGradient id="bp" x1="377.36" y1="248.04" x2="378.27" y2="245.55" xlink:href="#b"/><linearGradient id="bq" x1="380.27" y1="228.55" x2="381.21" y2="225.95" xlink:href="#b"/><linearGradient id="br" x1="350.5" y1="321.79" x2="351.55" y2="318.92" xlink:href="#b"/><linearGradient id="bs" x1="379.66" y1="233.54" x2="380.59" y2="230.98" xlink:href="#b"/><linearGradient id="bt" x1="29.6" y1="156.04" x2="29.38" y2="157.28" gradientUnits="userSpaceOnUse"><stop offset="0" stop-color="#d40013"/><stop offset="0.06" stop-color="#d40612"/><stop offset="0.48" stop-color="#d73108"/><stop offset="0.81" stop-color="#d94c02"/><stop offset="1" stop-color="#da5600"/></linearGradient><linearGradient id="bu" x1="27.91" y1="164.93" x2="27.6" y2="166.64" xlink:href="#bt"/><linearGradient id="bv" x1="26.92" y1="172.2" x2="26.58" y2="174.17" xlink:href="#bt"/><linearGradient id="bw" x1="27.38" y1="168.51" x2="27.05" y2="170.38" xlink:href="#bt"/><linearGradient id="bx" x1="26.55" y1="175.94" x2="26.18" y2="178.02" xlink:href="#bt"/><linearGradient id="by" x1="26.27" y1="179.73" x2="25.88" y2="181.95" xlink:href="#bt"/><linearGradient id="bz" x1="32.26" y1="145.64" x2="32.06" y2="146.8" xlink:href="#bt"/><linearGradient id="ca" x1="34.3" y1="139.28" x2="34.19" y2="139.94" xlink:href="#bt"/><linearGradient id="cb" x1="30.42" y1="152.51" x2="30.19" y2="153.79" xlink:href="#bt"/><linearGradient id="cc" x1="26.08" y1="187.46" x2="25.42" y2="191.25" xlink:href="#bt"/><linearGradient id="cd" x1="33.28" y1="142.33" x2="33.1" y2="143.36" xlink:href="#bt"/><linearGradient id="ce" x1="31.31" y1="149.05" x2="31.09" y2="150.28" xlink:href="#bt"/><linearGradient id="cf" x1="26.09" y1="183.57" x2="25.65" y2="186.06" xlink:href="#bt"/><linearGradient id="cg" x1="312.22" y1="371.43" x2="311.96" y2="372.92" xlink:href="#bt"/><linearGradient id="ch" x1="205.51" y1="114.06" x2="115.58" y2="624.12" xlink:href="#bt"/><linearGradient id="ci" x1="287.62" y1="394.55" x2="286.83" y2="399.07" xlink:href="#bt"/><linearGradient id="cj" x1="298.24" y1="384.28" x2="297.37" y2="389.2" xlink:href="#bt"/><linearGradient id="ck" x1="308.59" y1="373.74" x2="307.67" y2="378.96" xlink:href="#bt"/><linearGradient id="cl" x1="303.71" y1="378.99" x2="302.91" y2="383.57" xlink:href="#bt"/><linearGradient id="cm" x1="282.18" y1="400.22" x2="281.66" y2="403.17" xlink:href="#bt"/><linearGradient id="cn" x1="293.07" y1="389.69" x2="292.38" y2="393.59" xlink:href="#bt"/><linearGradient id="co" x1="200.4" y1="478.34" x2="200.36" y2="478.54" xlink:href="#bt"/><linearGradient id="cp" x1="210.05" y1="467.85" x2="210.05" y2="467.87" xlink:href="#bt"/><linearGradient id="cq" x1="191.24" y1="489.27" x2="191.17" y2="489.63" xlink:href="#bt"/><linearGradient id="cr" x1="277.25" y1="404.76" x2="276.76" y2="407.54" xlink:href="#bt"/><linearGradient id="cs" x1="271.05" y1="411.23" x2="270.94" y2="411.83" xlink:href="#bt"/></defs><title>LOGO</title><path class="a" d="M25.73,191.3c18.36-54.22,54.22-89.25,91.76-89.25,49.29,0,86.74,40,86.74,89.25C204.22,298.61,25,356.07,25,510.13a119,119,0,0,0,119,119C144,412.7,382.71,429.32,382.71,191.3A178.49,178.49,0,0,0,204.22,12.81c-73.93,0-178.49,71.25-178.49,178.49Z" transform="translate(-24.98 -12.81)"/><path class="b" d="M382.71,191.3A178.49,178.49,0,0,0,204.22,12.81c-59.86,0-139.79,46.71-168.05,121.41h0C124-43.29,461.91,102.38,343.5,332.66,366.94,296.84,382.71,252.49,382.71,191.3Z" transform="translate(-24.98 -12.81)"/><path class="c" d="M134.81,30.25l-2.63,1.29Z" transform="translate(-24.98 -12.81)"/><path class="d" d="M127.17,34.13q-1.4.75-2.79,1.52Q125.77,34.88,127.17,34.13Z" transform="translate(-24.98 -12.81)"/><path class="e" d="M131,32.14l-2.7,1.4Z" transform="translate(-24.98 -12.81)"/><path class="f" d="M112.17,43q-1.83,1.18-3.65,2.41Q110.33,44.16,112.17,43Z" transform="translate(-24.98 -12.81)"/><path class="g" d="M369.45,123.69h0q1.6,3.91,3,7.9Q371.05,127.6,369.45,123.69Z" transform="translate(-24.98 -12.81)"/><path class="h" d="M123.38,36.21q-1.46.82-2.91,1.67Q121.92,37,123.38,36.21Z" transform="translate(-24.98 -12.81)"/><path class="i" d="M115.88,40.63q-1.66,1-3.3,2.08Q114.22,41.65,115.88,40.63Z" transform="translate(-24.98 -12.81)"/><path class="j" d="M119.62,38.37q-1.54.91-3.07,1.85Q118.08,39.28,119.62,38.37Z" transform="translate(-24.98 -12.81)"/><path class="k" d="M361.67,299.31q.53-1.21,1.06-2.43Q362.21,298.11,361.67,299.31Z" transform="translate(-24.98 -12.81)"/><path class="l" d="M359.92,303.17q.57-1.22,1.12-2.44Q360.49,302,359.92,303.17Z" transform="translate(-24.98 -12.81)"/><path class="m" d="M358.11,307q.6-1.23,1.19-2.47Q358.72,305.74,358.11,307Z" transform="translate(-24.98 -12.81)"/><path class="n" d="M356.24,310.71q.64-1.24,1.26-2.5Q356.88,309.47,356.24,310.71Z" transform="translate(-24.98 -12.81)"/><path class="o" d="M354.31,314.41q.67-1.26,1.34-2.54Q355,313.15,354.31,314.41Z" transform="translate(-24.98 -12.81)"/><path class="p" d="M363.36,295.41q.51-1.21,1-2.42Q363.87,294.2,363.36,295.41Z" transform="translate(-24.98 -12.81)"/><path class="q" d="M368,283.33q.43-1.21.85-2.43Q368.47,282.12,368,283.33Z" transform="translate(-24.98 -12.81)"/><path class="r" d="M366.54,287.42q.46-1.21.9-2.44Q367,286.21,366.54,287.42Z" transform="translate(-24.98 -12.81)"/><path class="s" d="M365,291.44q.48-1.21,1-2.42Q365.46,290.24,365,291.44Z" transform="translate(-24.98 -12.81)"/><path class="t" d="M53.66,100.22q1.08-1.63,2.2-3.24Q54.74,98.59,53.66,100.22Z" transform="translate(-24.98 -12.81)"/><path class="u" d="M67.62,81.74q1.34-1.56,2.71-3.1Q69,80.18,67.62,81.74Z" transform="translate(-24.98 -12.81)"/><path class="v" d="M64.66,85.28q1.28-1.56,2.58-3.1Q65.94,83.72,64.66,85.28Z" transform="translate(-24.98 -12.81)"/><path class="w" d="M61.78,88.9q1.22-1.57,2.47-3.11Q63,87.32,61.78,88.9Z" transform="translate(-24.98 -12.81)"/><path class="x" d="M70.65,78.28q1.42-1.58,2.87-3.12Q72.07,76.71,70.65,78.28Z" transform="translate(-24.98 -12.81)"/><path class="y" d="M76.93,71.61a208.14,208.14,0,0,1,31.56-26.2A208.13,208.13,0,0,0,76.93,71.61Z" transform="translate(-24.98 -12.81)"/><path class="z" d="M73.76,74.91q1.51-1.6,3.05-3.17Q75.27,73.3,73.76,74.91Z" transform="translate(-24.98 -12.81)"/><path class="aa" d="M343.5,332.65C461.91,102.38,124-43.29,36.17,134.22q.84-2.22,1.74-4.42a160.65,160.65,0,0,0-12.19,61.5c18.36-54.22,54.22-89.25,91.76-89.25h0C209,94.85,360.2,210.44,182.58,501,226.84,437.88,299,400.67,343.5,332.65Z" transform="translate(-24.98 -12.81)"/><path class="ab" d="M59,92.59q1.17-1.59,2.37-3.14Q60.16,91,59,92.59Z" transform="translate(-24.98 -12.81)"/><path class="ac" d="M44.11,116.46q.94-1.82,1.92-3.61Q45,114.64,44.11,116.46Z" transform="translate(-24.98 -12.81)"/><path class="ad" d="M42,120.75q.91-1.89,1.87-3.75Q42.87,118.86,42,120.75Z" transform="translate(-24.98 -12.81)"/><path class="ae" d="M38,129.63q.87-2.1,1.78-4.16Q38.85,127.54,38,129.63Z" transform="translate(-24.98 -12.81)"/><path class="af" d="M39.93,125.12q.89-2,1.82-3.93Q40.81,123.15,39.93,125.12Z" transform="translate(-24.98 -12.81)"/><path class="ag" d="M48.69,108.18q1-1.71,2-3.4Q49.69,106.46,48.69,108.18Z" transform="translate(-24.98 -12.81)"/><path class="ah" d="M46.35,112.28q1-1.76,2-3.5Q47.32,110.52,46.35,112.28Z" transform="translate(-24.98 -12.81)"/><path class="ai" d="M352.32,318.07q.72-1.29,1.43-2.6Q353,316.78,352.32,318.07Z" transform="translate(-24.98 -12.81)"/><path class="aj" d="M56.28,96.37q1.12-1.61,2.28-3.18Q57.4,94.76,56.28,96.37Z" transform="translate(-24.98 -12.81)"/><path class="ak" d="M51.13,104.16q1-1.67,2.12-3.31Q52.17,102.49,51.13,104.16Z" transform="translate(-24.98 -12.81)"/><path class="al" d="M376.28,143.7q-.54-1.95-1.12-3.88Q375.74,141.75,376.28,143.7Z" transform="translate(-24.98 -12.81)"/><path class="am" d="M375.11,139.63q-.6-2-1.24-3.94Q374.51,137.64,375.11,139.63Z" transform="translate(-24.98 -12.81)"/><path class="an" d="M373.83,135.59q-.66-2-1.36-4Q373.18,133.59,373.83,135.59Z" transform="translate(-24.98 -12.81)"/><path class="ao" d="M377.37,147.81q-.48-1.91-1-3.79Q376.89,145.91,377.37,147.81Z" transform="translate(-24.98 -12.81)"/><path class="ap" d="M378.36,152q-.42-1.86-.88-3.7Q377.94,150.12,378.36,152Z" transform="translate(-24.98 -12.81)"/><path class="aq" d="M373.36,266.3q.34-1.25.67-2.51Q373.7,265.05,373.36,266.3Z" transform="translate(-24.98 -12.81)"/><path class="ar" d="M369.47,279.17q.41-1.22.8-2.45Q369.88,278,369.47,279.17Z" transform="translate(-24.98 -12.81)"/><path class="as" d="M370.83,275q.38-1.23.76-2.47Q371.22,273.72,370.83,275Z" transform="translate(-24.98 -12.81)"/><path class="at" d="M372.13,270.66q.36-1.24.71-2.49Q372.49,269.42,372.13,270.66Z" transform="translate(-24.98 -12.81)"/><path class="au" d="M382.49,182.27c0-.78-.1-1.56-.14-2.35C382.39,180.71,382.45,181.49,382.49,182.27Z" transform="translate(-24.98 -12.81)"/><path class="av" d="M381.82,173.4c-.1-1-.21-1.92-.32-2.88C381.61,171.48,381.73,172.44,381.82,173.4Z" transform="translate(-24.98 -12.81)"/><path class="aw" d="M382.21,177.82c-.07-.88-.15-1.76-.23-2.64C382.06,176.06,382.14,176.94,382.21,177.82Z" transform="translate(-24.98 -12.81)"/><path class="ax" d="M379.25,156.17c-.24-1.19-.49-2.38-.76-3.57Q378.89,154.38,379.25,156.17Z" transform="translate(-24.98 -12.81)"/><path class="ay" d="M382.66,186.77c0-.61,0-1.23-.07-1.84C382.61,185.54,382.64,186.15,382.66,186.77Z" transform="translate(-24.98 -12.81)"/><path class="az" d="M381.33,169c-.13-1-.27-2.06-.42-3.08C381.06,167,381.2,168,381.33,169Z" transform="translate(-24.98 -12.81)"/><path class="ba" d="M380,160.41c-.2-1.14-.41-2.28-.64-3.42C379.63,158.13,379.84,159.27,380,160.41Z" transform="translate(-24.98 -12.81)"/><path class="bb" d="M380.74,164.7c-.16-1.09-.34-2.17-.53-3.26C380.4,162.53,380.57,163.61,380.74,164.7Z" transform="translate(-24.98 -12.81)"/><path class="bc" d="M379.23,238.55c.14-.9.27-1.81.4-2.72C379.5,236.74,379.37,237.65,379.23,238.55Z" transform="translate(-24.98 -12.81)"/><path class="bd" d="M382.31,207.86c.05-1.11.09-2.23.14-3.35C382.41,205.63,382.37,206.75,382.31,207.86Z" transform="translate(-24.98 -12.81)"/><path class="be" d="M382.53,202.44c0-1.25.07-2.52.09-3.78C382.6,199.92,382.57,201.19,382.53,202.44Z" transform="translate(-24.98 -12.81)"/><path class="bf" d="M382,213.19c.07-1,.12-2.09.18-3.13C382.13,211.11,382.07,212.16,382,213.19Z" transform="translate(-24.98 -12.81)"/><path class="bg" d="M382.71,191.3c0-.07,0-.15,0-.22s0,.15,0,.22q0,2.83,0,5.61Q382.71,194.13,382.71,191.3Z" transform="translate(-24.98 -12.81)"/><path class="bh" d="M374.52,261.86q.32-1.26.62-2.53Q374.84,260.6,374.52,261.86Z" transform="translate(-24.98 -12.81)"/><path class="bi" d="M348.11,325.32q.85-1.4,1.68-2.81Q349,323.92,348.11,325.32Z" transform="translate(-24.98 -12.81)"/><path class="bj" d="M381.61,218.44c.08-1,.15-2,.23-3C381.77,216.44,381.7,217.44,381.61,218.44Z" transform="translate(-24.98 -12.81)"/><path class="bk" d="M345.88,328.93q.93-1.49,1.85-3Q346.82,327.45,345.88,328.93Z" transform="translate(-24.98 -12.81)"/><path class="bl" d="M343.53,332.6q1.06-1.62,2.1-3.27Q344.6,331,343.53,332.6Z" transform="translate(-24.98 -12.81)"/><path class="bm" d="M381.14,223.59c.1-1,.18-1.93.27-2.89C381.32,221.66,381.24,222.63,381.14,223.59Z" transform="translate(-24.98 -12.81)"/><path class="bn" d="M376.63,252.77c.18-.86.36-1.73.53-2.6C377,251,376.81,251.91,376.63,252.77Z" transform="translate(-24.98 -12.81)"/><path class="bo" d="M378.44,243.37c.15-.89.3-1.78.45-2.67C378.74,241.59,378.59,242.49,378.44,243.37Z" transform="translate(-24.98 -12.81)"/><path class="bp" d="M375.61,257.36c.2-.85.39-1.71.58-2.57C376,255.65,375.81,256.51,375.61,257.36Z" transform="translate(-24.98 -12.81)"/><path class="bq" d="M377.57,248.11c.17-.87.33-1.75.49-2.63C377.9,246.36,377.74,247.24,377.57,248.11Z" transform="translate(-24.98 -12.81)"/><path class="br" d="M380.58,228.67c.11-.94.21-1.88.31-2.83C380.8,226.78,380.69,227.73,380.58,228.67Z" transform="translate(-24.98 -12.81)"/><path class="bs" d="M350.25,321.7q.78-1.34,1.54-2.69Q351,320.37,350.25,321.7Z" transform="translate(-24.98 -12.81)"/><path class="bt" d="M379.95,233.65c.13-.92.24-1.85.36-2.77C380.19,231.8,380.07,232.73,379.95,233.65Z" transform="translate(-24.98 -12.81)"/><path class="bu" d="M29.36,157.28c.09-.41.17-.83.27-1.24C29.53,156.45,29.45,156.87,29.36,157.28Z" transform="translate(-24.98 -12.81)"/><path class="bv" d="M27.61,166.65c.09-.57.19-1.15.28-1.72C27.8,165.5,27.7,166.07,27.61,166.65Z" transform="translate(-24.98 -12.81)"/><path class="bw" d="M26.64,174.18c.07-.67.15-1.33.23-2C26.78,172.85,26.71,173.51,26.64,174.18Z" transform="translate(-24.98 -12.81)"/><path class="bx" d="M27.08,170.39c.08-.63.17-1.26.26-1.89C27.26,169.13,27.16,169.76,27.08,170.39Z" transform="translate(-24.98 -12.81)"/><path class="by" d="M26.27,178q.09-1.06.19-2.11Q26.36,177,26.27,178Z" transform="translate(-24.98 -12.81)"/><path class="bz" d="M26,182c0-.76.09-1.51.14-2.26C26.09,180.46,26,181.22,26,182Z" transform="translate(-24.98 -12.81)"/><path class="ca" d="M32,146.79l.33-1.14Z" transform="translate(-24.98 -12.81)"/><path class="cb" d="M34.13,139.93l.22-.65Z" transform="translate(-24.98 -12.81)"/><path class="cc" d="M30.15,153.78c.1-.42.2-.84.3-1.26C30.35,152.94,30.25,153.36,30.15,153.78Z" transform="translate(-24.98 -12.81)"/><path class="cd" d="M25.73,191.3q0-2,0-3.9Q25.73,189.35,25.73,191.3Z" transform="translate(-24.98 -12.81)"/><path class="ce" d="M33,143.34l.32-1Z" transform="translate(-24.98 -12.81)"/><path class="cf" d="M31,150.27l.32-1.21Z" transform="translate(-24.98 -12.81)"/><path class="cg" d="M25.82,186.09c0-.85.06-1.7.1-2.55C25.87,184.39,25.85,185.24,25.82,186.09Z" transform="translate(-24.98 -12.81)"/><path class="ch" d="M311.48,372.83l1.22-1.29v0Z" transform="translate(-24.98 -12.81)"/><path class="ci" d="M182.58,501c177.62-290.57,26.43-406.16-65.1-399,42.71,0,76.51,30,84.78,70.09h0C230.68,264,81.18,421.65,144,629.12c0-55.29,15.59-95.36,38.79-128.36Z" transform="translate(-24.98 -12.81)"/><path class="cj" d="M289.34,394.85q-2.1,2-4.22,3.93Q287.23,396.82,289.34,394.85Z" transform="translate(-24.98 -12.81)"/><path class="ck" d="M300,384.6q-2.19,2.16-4.4,4.29Q297.82,386.76,300,384.6Z" transform="translate(-24.98 -12.81)"/><path class="cl" d="M310.33,374.05q-2.19,2.32-4.41,4.6Q308.14,376.37,310.33,374.05Z" transform="translate(-24.98 -12.81)"/><path class="cm" d="M301.31,383.29q2-2,4-4Q303.32,381.3,301.31,383.29Z" transform="translate(-24.98 -12.81)"/><path class="cn" d="M283.32,400.42,280.53,403Z" transform="translate(-24.98 -12.81)"/><path class="co" d="M294.51,389.94l-3.57,3.4Z" transform="translate(-24.98 -12.81)"/><path class="cp" d="M200.3,478.53l.16-.18Z" transform="translate(-24.98 -12.81)"/><path class="cq" d="M210,467.87l0,0Z" transform="translate(-24.98 -12.81)"/><path class="cr" d="M191.08,489.62l.26-.32Z" transform="translate(-24.98 -12.81)"/><path class="cs" d="M278.34,405l-2.67,2.4Z" transform="translate(-24.98 -12.81)"/><path class="ct" d="M271.29,411.27l-.58.52Z" transform="translate(-24.98 -12.81)"/></svg>