<?xml version="1.0" encoding="utf-8"?>
<!-- Generator: Adobe Illustrator 21.0.2, SVG Export Plug-In . SVG Version: 6.00 Build 0)  -->
<svg version="1.1" id="Laag_1" xmlns="http://www.w3.org/2000/svg" xmlns:xlink="http://www.w3.org/1999/xlink" x="0px" y="0px"
	 viewBox="0 0 150 150" style="enable-background:new 0 0 150 150;" xml:space="preserve">
<style type="text/css">
	.st0{fill:none;stroke:#70788E;stroke-width:0.5;stroke-miterlimit:10;}
	.st1{fill:none;stroke:#70788E;stroke-width:1.3;stroke-miterlimit:10;}
</style>
<g>
	<line class="st0" x1="121.1" y1="87.6" x2="26.3" y2="87.6"/>
	<path class="st1" d="M121.1,93.6c0,3.5-2.8,6.2-6.2,6.2H32.3c-3.5,0-6.2-2.8-6.2-6.2V43.4c0-3.5,2.8-6.2,6.2-6.2h82.6
		c3.5,0,6.2,2.8,6.2,6.2V93.6z"/>
	<circle class="st0" cx="74" cy="93.7" r="3.1"/>
	<path class="st0" d="M80.9,99.8c0,6.7,6.8,10.9,13,10.9c1.1,0,1.9,0.4,1.9,1.6c0,1.2-1.1,1.2-1.8,1.2H53.9c-0.7,0-1.8,0-1.8-1.2
		c0-1.2,1-1.6,1.9-1.6c6.1,0,13-4.3,13-10.9H80.9z"/>
</g>
</svg>
