<?xml version="1.0" encoding="utf-8"?>
<!-- Generator: Adobe Illustrator 21.0.2, SVG Export Plug-In . SVG Version: 6.00 Build 0)  -->
<svg version="1.1" id="Laag_1" xmlns="http://www.w3.org/2000/svg" xmlns:xlink="http://www.w3.org/1999/xlink" x="0px" y="0px"
	 viewBox="0 0 150 150" style="enable-background:new 0 0 150 150;" xml:space="preserve">
<style type="text/css">
	.st0{fill:none;stroke:#70788D;stroke-width:0.5;stroke-miterlimit:10;}
	.st1{fill:none;stroke:#70788D;stroke-width:1.3;stroke-miterlimit:10;}
</style>
<g>
	<path class="st0" d="M119.2,42.5H33.1c-3.6,0-6.6,2.5-6.6,5.5v0.1l49.6,49.4l49.6-49.4V48C125.7,45,122.8,42.5,119.2,42.5z"/>
	<path class="st1" d="M125.7,102.7c0,3-2.9,5.5-6.6,5.5H33.1c-3.6,0-6.6-2.5-6.6-5.5V48c0-3,2.9-5.5,6.6-5.5h86.1
		c3.6,0,6.6,2.5,6.6,5.5V102.7z"/>
	<path class="st0" d="M125.7,102.7L90.4,83.2L76.1,97.5L61.8,83.2l-35.3,19.5c0,3,2.9,5.5,6.6,5.5l86.1,0
		C122.8,108.2,125.7,105.8,125.7,102.7z"/>
</g>
</svg>
