<?xml version="1.0" encoding="utf-8"?>
<!-- Generator: Adobe Illustrator 21.0.2, SVG Export Plug-In . SVG Version: 6.00 Build 0)  -->
<svg version="1.1" id="Laag_1" xmlns="http://www.w3.org/2000/svg" xmlns:xlink="http://www.w3.org/1999/xlink" x="0px" y="0px"
	 viewBox="0 0 150 150" style="enable-background:new 0 0 150 150;" xml:space="preserve">
<style type="text/css">
	.st0{fill:none;stroke:#70788D;stroke-width:1.3;stroke-miterlimit:10;}
	.st1{fill:none;stroke:#70788D;stroke-width:0.5;stroke-miterlimit:10;}
</style>
<g>
	<path class="st0" d="M59.1,56.5c-5.2-6.3-0.8-7.8,1.7-7.8L56.7,31c-3.7-1.2-10,1.2-12.9,3.7c-6.8,5.7-8.1,15.4-2.8,21.8
		c9.6,11.6,9.4,17.8,18.5,28.8s15.3,11.9,24.8,23.5c5.3,6.4,15.1,7,22,1.3c3-2.5,6.5-8.1,6.1-12l-16.6-7.3c-0.5,2.4-2.7,6.6-7.9,0.3
		L59.1,56.5z"/>
	<line class="st1" x1="57.8" y1="49.8" x2="52.9" y2="30.7"/>
	<line class="st1" x1="111.7" y1="101.9" x2="93.8" y2="93.8"/>
</g>
</svg>
