<?xml version="1.0" encoding="utf-8"?>
<!-- Generator: Adobe Illustrator 21.0.2, SVG Export Plug-In . SVG Version: 6.00 Build 0)  -->
<svg version="1.1" id="Laag_1" xmlns="http://www.w3.org/2000/svg" xmlns:xlink="http://www.w3.org/1999/xlink" x="0px" y="0px"
	 viewBox="0 0 150 150" style="enable-background:new 0 0 150 150;" xml:space="preserve">
<style type="text/css">
	.st0{fill:none;stroke:#70788E;stroke-width:0.5;stroke-miterlimit:10;}
	.st1{fill:none;stroke:#70788E;stroke-width:1.3;stroke-miterlimit:10;}
</style>
<g>
	<path class="st0" d="M80.3,40.2c0-0.5-0.5-1-1-1H69.1c-0.5,0-1,0.5-1,1l0,0c0,0.5,0.5,1,1,1h10.3C79.8,41.4,80.3,40.9,80.3,40.2
		L80.3,40.2z"/>
	<line class="st0" x1="93.7" y1="95.1" x2="54.7" y2="95.1"/>
	<path class="st1" d="M88.7,35.1H59.7c-2.7,0-5,2.2-5,5v19.8v7v5.8v16.4v12.6c0,2.7,2.2,5,5,5h29.1c2.7,0,5-2.2,5-5V89.1V72.9v-5.6
		v-7v-20C93.7,37.5,91.5,35.1,88.7,35.1z"/>
	<circle class="st0" cx="74.4" cy="100.9" r="2.9"/>
</g>
</svg>
