<?xml version="1.0" encoding="utf-8"?>
<!-- Generator: Adobe Illustrator 21.0.2, SVG Export Plug-In . SVG Version: 6.00 Build 0)  -->
<svg version="1.1" id="Laag_1" xmlns="http://www.w3.org/2000/svg" xmlns:xlink="http://www.w3.org/1999/xlink" x="0px" y="0px"
	 viewBox="0 0 150 150" style="enable-background:new 0 0 150 150;" xml:space="preserve">
<style type="text/css">
	.st0{fill:none;stroke:#70788E;stroke-width:1.3;stroke-miterlimit:10;}
	.st1{fill:none;stroke:#70788E;stroke-width:0.5;stroke-miterlimit:10;}
</style>
<g>
	<path class="st0" d="M109.5,85.3c0,5.5-4.5,10-10,10H71.3c-5.5,0-10-4.5-10-10V57.1c0-5.5,4.5-10,10-10h28.2c5.5,0,10,4.5,10,10
		V85.3z"/>
	<path class="st1" d="M57.9,38.6c4.9,0,7.8,2.6,11,8.7l4.7-0.3c-3.8-7.9-9.4-12.7-15.7-12.7l0,0c-7.9,0-17.4,16.5-17.4,36.8
		c0,20.3,9.5,36.8,17.4,36.8c6.2,0,12-5.1,15.8-12.7l-4.8-0.1c-3.2,5.9-6.4,8.6-11,8.6c-4.7,0-13.2-12.6-13.2-32.6
		C44.7,51.2,53.1,38.6,57.9,38.6z"/>
	<path class="st1" d="M69.9,47.3"/>
	<path class="st1" d="M97.9,47.5c-3.8-8-9.5-13.2-15.9-13.2h-24"/>
	<path class="st1" d="M57.9,107.8L57.9,107.8L57.9,107.8l24,0c6.2,0,11.7-4.8,15.5-12.3l-0.2-0.3H73.7"/>
</g>
</svg>
