<?xml version="1.0" encoding="utf-8"?>
<!-- Generator: Adobe Illustrator 21.0.2, SVG Export Plug-In . SVG Version: 6.00 Build 0)  -->
<svg version="1.1" id="Laag_1" xmlns="http://www.w3.org/2000/svg" xmlns:xlink="http://www.w3.org/1999/xlink" x="0px" y="0px"
	 viewBox="0 0 150 150" style="enable-background:new 0 0 150 150;" xml:space="preserve">
<style type="text/css">
	.st0{fill:none;stroke:#70788E;stroke-width:1.3;stroke-miterlimit:10;}
	.st1{fill:none;stroke:#70788E;stroke-width:0.5;stroke-miterlimit:10;}
</style>
<path class="st0" d="M129.2,100.9c0,3.6-2.9,6.5-6.5,6.5H37.5c-3.6,0-6.5-2.9-6.5-6.5V49.1c0-3.6,2.9-6.5,6.5-6.5h85.2
	c3.6,0,6.5,2.9,6.5,6.5V100.9z"/>
<line class="st1" x1="31" y1="94.7" x2="129.2" y2="94.7"/>
<g>
	<path class="st0" d="M129.2,70.9v30c0,0.2,0,0.4,0,0.6h7.8L129.2,70.9z"/>
	<path class="st0" d="M31,100.9V71.6l-7.3,29.9H31C31,101.3,31,101.1,31,100.9z"/>
</g>
</svg>
