<?xml version="1.0" encoding="utf-8"?>
<!-- Generator: Adobe Illustrator 21.0.2, SVG Export Plug-In . SVG Version: 6.00 Build 0)  -->
<svg version="1.1" id="Laag_1" xmlns="http://www.w3.org/2000/svg" xmlns:xlink="http://www.w3.org/1999/xlink" x="0px" y="0px"
	 viewBox="0 0 150 150" style="enable-background:new 0 0 150 150;" xml:space="preserve">
<style type="text/css">
	.st0{fill:none;stroke:#70788E;stroke-width:0.5;stroke-miterlimit:10;}
	.st1{fill:none;stroke:#70788E;stroke-width:1.3;stroke-miterlimit:10;}
</style>
<g>
	<line class="st0" x1="32.5" y1="51.4" x2="110.9" y2="51.4"/>
	<circle class="st0" cx="39.5" cy="46.3" r="2.6"/>
	<circle class="st0" cx="47.5" cy="46.3" r="2.6"/>
	<circle class="st0" cx="55.6" cy="46.3" r="2.6"/>
	<path class="st1" d="M106.7,41.3H84.3h-2.7H62.1h-3H37c-2.4,0-4.4,2-4.4,4.4v17.9v6.1v19.1c0,2.4,2,4.4,4.4,4.4h22.2h3h19.4h2.7
		h22.4c2.4,0,4.4-2,4.4-4.4V69.6v-6.1V45.6C111.1,43.2,109.1,41.3,106.7,41.3z"/>
	<path class="st0" d="M120.4,66.6h-18.8h-6.3H76.4c-2.4,0-4.4,2-4.4,4.4v2.8v22.4v2.8c0,2.4,2,4.4,4.4,4.4h18.8h6.3h18.8
		c2.4,0,4.4-2,4.4-4.4v-2.8V73.7v-2.8C124.7,68.5,122.8,66.6,120.4,66.6z"/>
</g>
</svg>
